<svg width="800" height="800" xmlns="http://www.w3.org/2000/svg">
  <style>
    .box { fill: #e0f7fa; stroke: #000; }
    .box1 { fill: #ffccbc; }
    .box2 { fill: #dcedc8; }
    .box3 { fill: #f8bbd0; }
    .box4 { fill: #c5cae9; }
    .box5 { fill: #fff9c4; }
    .box6 { fill: #b2ebf2; }
    text { font-family: Arial; font-size: 14px; }
  </style>
  <path class="box box1" d="M10 10h780v70H10z"/>
  <text x="20" y="50">📋 Complete Command Reference</text>
  <path stroke="#000" d="M400 80v40"/>
  <path class="box box2" d="M10 120h780v70H10z"/>
  <text x="20" y="160">🚀 1. Initial Environment Setup</text>
  <path stroke="#000" d="M400 190v40"/>
  <path class="box box3" d="M10 230h780v70H10z"/>
  <text x="20" y="270">Start Minikube with sufficient resources</text>
  <path stroke="#000" d="M400 300v40"/>
  <path class="box box4" d="M10 340h780v70H10z"/>
  <text x="20" y="380">Verify Minikube status</text>
  <path stroke="#000" d="M400 410v40"/>
  <path class="box box5" d="M10 450h780v70H10z"/>
  <text x="20" y="490">Create monitoring namespace</text>
  <path stroke="#000" d="M400 520v40"/>
  <path class="box box6" d="M10 560h780v70H10z"/>
  <text x="20" y="600">Set and verify context</text>
  <path stroke="#000" d="M400 630v40"/>
  <path class="box" d="M10 670h780v70H10z"/>
  <text x="20" y="710">📦 2. Grafana Installation with Image Renderer</text>
</svg>
